<svg width="495" height="453" viewBox="0 0 495 453" fill="none" xmlns="http://www.w3.org/2000/svg">
<path fill-rule="evenodd" clip-rule="evenodd" d="M251.892 74.7342C305.862 60.2368 344.41 -9.5425 399.234 1.09912C450.093 10.9712 494.549 69.0276 494.998 121.923C495.477 178.32 419.365 203.999 401.409 257.331C388.617 295.329 430.229 340.827 409.749 375.131C389.631 408.829 341.273 406.438 304.737 419.261C266.219 432.781 229.994 457.018 189.515 452.431C145.721 447.467 104.854 424.982 73.7573 393.084C41.3996 359.893 22.0425 316.338 12.2264 270.575C1.87672 222.325 -10.9219 166.236 16.3499 125.452C43.6148 84.6787 99.8498 78.9988 147.14 68.816C182.067 61.2954 217.371 84.007 251.892 74.7342Z" fill="#4285F4"/>
</svg>
