<svg width="425" height="547" viewBox="0 0 425 547" fill="none" xmlns="http://www.w3.org/2000/svg">
<path fill-rule="evenodd" clip-rule="evenodd" d="M189.02 0.0349077C241.684 0.492281 297.192 13.2622 336.013 49.6281C372.916 84.1973 375.356 140.509 390.891 189.139C404.544 231.878 435.213 274.758 421.587 317.507C408.033 360.03 349.391 366.293 323.042 402.002C293.574 441.94 303.38 509.27 261.273 534.776C219.689 559.964 165.365 540.872 119.489 525.3C74.7384 510.109 20.1244 492.554 3.76256 447.364C-13.198 400.521 32.2412 354.601 39.8185 305.259C44.5475 274.465 39.5832 244.811 39.6548 213.641C39.7848 156.966 8.16586 93.1747 40.4112 47.0609C71.1816 3.05629 136.092 -0.424748 189.02 0.0349077Z" fill="#EA4335"/>
</svg>
