<svg width="513" height="512" viewBox="0 0 513 512" fill="none" xmlns="http://www.w3.org/2000/svg">
<path fill-rule="evenodd" clip-rule="evenodd" d="M271.967 6.47367C321.907 -10.9797 391.568 7.64411 420.311 52.8649C451.428 101.819 391.476 169.01 410.307 224.117C426.207 270.649 514.661 274.793 512.976 324.048C511.372 370.941 437.127 372.994 404.099 405.604C375.301 434.038 369.756 484.925 333.173 501.577C295.846 518.568 248.205 514.277 213.396 492.41C180.186 471.548 187.739 414.763 156.673 390.7C111.495 355.706 16.8221 384.149 1.601 328.36C-12.624 276.221 71.6438 251.559 107.957 212.142C131.353 186.747 155.538 164.9 177.098 137.863C211.441 94.7976 220.517 24.4542 271.967 6.47367Z" fill="#34A853"/>
</svg>
