<svg width="548" height="419" viewBox="0 0 548 419" fill="none" xmlns="http://www.w3.org/2000/svg">
<path fill-rule="evenodd" clip-rule="evenodd" d="M264.277 0.0826374C307.138 1.61673 347.048 21.825 381.065 48.4542C413.241 73.642 427.125 113.479 451.433 146.591C483.775 190.648 554.175 220.645 547.565 275.261C541.001 329.5 471.84 350.391 423.828 374.689C388.832 392.401 349.078 387.372 310.752 395.111C276.762 401.976 245.241 424.833 211.323 417.604C176.5 410.182 155.17 376.74 126.144 355.767C86.2334 326.929 27.8211 317.106 8.70294 271.199C-10.6234 224.791 4.80548 168.051 29.8701 124.591C53.9481 82.8411 99.9682 62.2784 142.097 39.9011C180.8 19.3435 220.663 -1.47838 264.277 0.0826374Z" fill="#FBBC05"/>
</svg>
